<svg width="494" height="120" viewBox="0 0 494 120" fill="none" xmlns="http://www.w3.org/2000/svg">
    <path d="M154.4 103V30.1H143.5V103H154.4ZM164.983 103H175.283V75.4C175.283 65.3 180.983 58.4 189.783 58.4C197.283 58.4 201.483 62.7 201.483 71.9V103H211.883V70.9C211.883 57.9 205.383 49.4 193.683 49.4C185.783 49.4 179.283 53.4 176.083 60.2H175.383L173.983 50.4H164.983V103ZM225.688 103H236.588V75H270.288V65.7H236.588V39.8H274.288V30.1H225.688V103ZM278.616 76.7C278.616 93.5 288.316 104 304.116 104C320.216 104 329.616 93.1 329.616 76.7C329.616 59.3 319.016 49.4 304.116 49.4C288.716 49.4 278.616 59.6 278.616 76.7ZM289.116 81V72.8C289.116 63.8 295.216 58.1 304.116 58.1C312.716 58.1 319.016 63.8 319.016 72.8V81C319.016 90.4 312.516 95.4 304.116 95.4C295.816 95.4 289.116 90.5 289.116 81ZM384.498 84.7H374.298C373.098 91.3 367.998 95.4 360.698 95.4C352.098 95.4 346.198 90 346.198 81.2V73C346.198 64.2 351.898 58.1 360.698 58.1C367.298 58.1 372.498 61.3 374.098 68.1H384.398C382.698 56.8 373.698 49.4 361.098 49.4C345.998 49.4 335.698 59.3 335.698 76.8C335.698 93.4 344.998 104 360.798 104C373.798 104 382.898 96.7 384.498 84.7ZM437.838 50.4H427.538V78C427.538 88.3 421.938 95.4 413.038 95.4C405.938 95.4 401.938 91.2 401.938 82.3V50.4H391.538V83.8C391.538 96.6 398.038 104 409.038 104C417.438 104 423.738 99.8 426.738 93.3H427.538L428.938 103H437.838V50.4ZM456.057 86.9H445.757C445.757 97 453.957 104 467.757 104C480.657 104 489.257 97.9 489.257 87.6C489.257 80.5 485.357 74.9 475.157 73.1L465.157 71.3C462.457 70.9 457.157 70 457.157 64.5C457.157 60 460.657 57.2 467.157 57.2C473.257 57.2 477.357 59.8 477.557 65.6H487.757C487.657 56 480.057 49.4 467.157 49.4C454.857 49.4 446.757 55.3 446.757 65.5C446.757 72.4 450.757 77.8 461.157 79.7L471.857 81.7C474.057 82.1 478.557 83.1 478.557 88.3C478.557 93.2 474.557 96.2 467.757 96.2C460.657 96.2 456.057 92.7 456.057 86.9Z" fill="white" />
    <path fill-rule="evenodd" clip-rule="evenodd" d="M54.5213 12C24.3983 12 0 35.9395 0 65.4961C0 89.1681 15.6067 109.162 37.279 116.25C40.005 116.719 41.0273 115.114 41.0273 113.709C41.0273 112.439 40.9591 108.226 40.9591 103.746C27.2607 106.22 23.7168 100.469 22.6263 97.46C22.013 95.9219 19.3551 91.1742 17.0379 89.9036C15.1297 88.9006 12.4036 86.4264 16.9698 86.3595C21.2633 86.2927 24.3301 90.238 25.3524 91.8429C30.2593 99.9341 38.0968 97.6606 41.2318 96.2563C41.7088 92.7791 43.14 90.4386 44.7075 89.1012C32.5765 87.7638 19.9003 83.1497 19.9003 62.6875C19.9003 56.8698 22.013 52.0552 25.4887 48.3104C24.9435 46.973 23.0353 41.4897 26.0339 34.134C26.0339 34.134 30.6001 32.7297 41.0273 39.6173C45.389 38.4137 50.0233 37.8118 54.6576 37.8118C59.2919 37.8118 63.9263 38.4137 68.288 39.6173C78.7152 32.6629 83.2813 34.134 83.2813 34.134C86.28 41.4897 84.3717 46.973 83.8265 48.3104C87.3023 52.0552 89.415 56.8029 89.415 62.6875C89.415 83.2166 76.6706 87.7638 64.5396 89.1012C66.516 90.7729 68.2198 93.9827 68.2198 98.998C68.2198 106.153 68.1517 111.904 68.1517 113.709C68.1517 115.114 69.1739 116.785 71.9 116.25C93.4359 109.162 109.043 89.1012 109.043 65.4961C109.043 35.9395 84.6443 12 54.5213 12Z" fill="white" />
</svg>
